<svg xmlns="http://www.w3.org/2000/svg" viewBox="0 0 2048 2048" fill="currentColor" aria-hidden="true">
  <path d="M1630.41,1416.62h-240.76l-187.82-245.76h-108.89v-173.83h228.78c41.35,0,81.31-45.61,84.88-84.95,4.73-52.02-33.12-106.86-88.88-106.86h-224.78v-175.83l246.84-.08c83.47,6.3,157.75,39.96,208.37,107.32,93.88,124.92,58.54,323.56-83.82,395.03-15.35,7.71-31.76,12.06-47.67,18.22l213.75,266.74Z"/>
  <path d="M1019,629.39l.1,512.6c-10.94,272.52-365.18,379.06-537.51,175.67-51.67-60.98-68.33-142.11-64-220.72h190.81c6.78,6.64.72,16.64.81,24.98.9,77.67,65.99,135.61,143.12,108.97,36.03-12.45,70.85-58.47,70.85-96.98v-504.51h195.81Z"/>
</svg>
